# xmcd
#
# Track frame offsets: 
#        150
#        13657
#        24941
#        38101
#        51064
#        61765
#        76349
#        88377
#        101297
#        115909
#        129270
#        141382
#        151920
#        163222
#        174338
#        185482
#        198537
#        211200
#        224929
#        237271
#        250404
#        263877
#        277234
#
# Disc length: 3856 seconds
#
# Revision: 2
# Processed by: cddbd v1.5.2PL0 Copyright (c) Steve Scherf et al.
# Submitted via: ExactAudioCopyFreeDBPlugin 1.0
#
DISCID=4f0f0e17
DTITLE=Various Artist - Tamla Motown - Big Hits and Hard to Find Classi
DTITLE=cs Volume 3
DYEAR=2000
DGENRE=Soul
TTITLE0=Kim Weston - Take Me In Your Arms (Rock Me A Little While)
TTITLE1=Kim Weston - Looking For The Right Guy
TTITLE2=Kim Weston - Love Me All The Way
TTITLE3=The Velvelettes - A Bird In The Hand (Is Worth Two In The Bush
TTITLE3=)
TTITLE4=Tammi Terrell - Come On And See Me
TTITLE5=Brenda Holloway - Operator
TTITLE6=Brenda Holloway - I'll Be Available
TTITLE7=Brenda Holloway - I'll Always Love You
TTITLE8=Shorty Long - Devil With The Blue Dress
TTITLE9=The Supremes - He's My Man
TTITLE10=Edwin Starr - Agent Double - O Soul
TTITLE11=Edwin Starr - (SOS) Stop Her On Sight
TTITLE12=Eddie Holland - Leaving Here
TTITLE13=Eddie Holland - Just Can't Get Enough Love
TTITLE14=Eddie Holland - Candy To Me
TTITLE15=The Isley Brothers - This Old Heart Of Mine (Is Weak For You)
TTITLE16=The Isley Brothers - Behind A Painted Smile
TTITLE17=Detroit Spinners - Truly Yours
TTITLE18=The Contours - Just A Little Misunderstanding
TTITLE19=The Contours - Do You Love Me
TTITLE20=The Contours - First I Look At The Purse
TTITLE21=The Elgins - Stay In My Lonely Arms
TTITLE22=The Elgins - Put Yourself In My Place
EXTD=
EXTT0=
EXTT1=
EXTT2=
EXTT3=
EXTT4=
EXTT5=
EXTT6=
EXTT7=
EXTT8=
EXTT9=
EXTT10=
EXTT11=
EXTT12=
EXTT13=
EXTT14=
EXTT15=
EXTT16=
EXTT17=
EXTT18=
EXTT19=
EXTT20=
EXTT21=
EXTT22=
PLAYORDER=
